<?xml version="1.0" encoding="UTF-8"?>
<!DOCTYPE svg PUBLIC "-//W3C//DTD SVG 1.1//EN" "http://www.w3.org/Graphics/SVG/1.1/DTD/svg11.dtd">
<!-- Creator: CorelDRAW 2019 (64-Bit) -->
<svg xmlns="http://www.w3.org/2000/svg" xml:space="preserve" width="15.4613mm" height="15.6948mm" version="1.1" style="shape-rendering:geometricPrecision; text-rendering:geometricPrecision; image-rendering:optimizeQuality; fill-rule:evenodd; clip-rule:evenodd"
viewBox="0 0 387.05 392.89"
 xmlns:xlink="http://www.w3.org/1999/xlink"
 xmlns:xodm="http://www.corel.com/coreldraw/odm/2003">
 <defs>
  <style type="text/css">
   <![CDATA[
    .fil0 {fill:#EBECEC}
    .fil1 {fill:#727271}
   ]]>
  </style>
 </defs>
 <g id="Warstwa_x0020_1">
  <metadata id="CorelCorpID_0Corel-Layer"/>
  <path class="fil0" d="M193.52 389.97c-106.88,0 -193.52,-86.64 -193.52,-193.52 0,-106.88 86.64,-193.52 193.52,-193.52 106.88,0 193.52,86.64 193.52,193.52 0,106.88 -86.64,193.52 -193.52,193.52z"/>
  <path class="fil1" d="M193.52 0c106.08,0 192.08,87.95 192.08,196.45 0,39.56 -11.45,76.39 -31.12,107.22l-95.16 0 0 -264.63 -39.78 0 0 299.81 106.31 0c-34.45,33.5 -81.03,54.05 -132.32,54.05 -52.08,0 -99.31,-21.21 -133.91,-55.63 7,-0.84 13.6,-2.01 19.79,-3.52 13.96,-3.42 25.89,-8.44 35.73,-15.07 9.91,-6.56 18.98,-15.63 27.36,-27.15 8.31,-11.52 15.15,-26.1 20.45,-43.69 5.3,-17.59 7.96,-37.76 7.96,-60.51 0,-26.73 -3.91,-50.52 -11.8,-71.32 -7.82,-20.8 -19.61,-37.83 -35.45,-51.22 -12.14,-10.33 -26.8,-17.52 -43.97,-21.5 -1.62,-0.38 -3.34,-0.73 -5.16,-1.06 32.72,-26.44 74.05,-42.23 118.99,-42.23zm-160.99 303.61c-19.66,-30.82 -31.09,-67.63 -31.09,-107.17 0,-46.02 15.48,-88.34 41.39,-121.82 14.92,0.79 26.29,2.69 34.13,5.73 14.72,5.72 27.22,17.03 37.47,33.91 10.26,16.89 15.43,41.03 15.43,72.44 0,22.68 -2.65,41.94 -7.89,57.85 -5.23,15.91 -12.56,28.61 -21.91,38.03 -6.7,6.7 -15.64,11.87 -26.87,15.56 -10.11,3.33 -23.67,5.13 -40.67,5.46z"/>
 </g>
</svg>
